<?xml version="1.0" standalone="no"?>
<!DOCTYPE svg PUBLIC "-//W3C//DTD SVG 20010904//EN"
 "http://www.w3.org/TR/2001/REC-SVG-20010904/DTD/svg10.dtd">
<svg version="1.0" xmlns="http://www.w3.org/2000/svg"
 width="249.000000pt" height="250.000000pt" viewBox="0 0 249.000000 250.000000"
 preserveAspectRatio="xMidYMid meet">

<g transform="translate(0.000000,250.000000) scale(0.100000,-0.100000)"
fill="#000000" stroke="none">
<path d="M0 1245 c0 -993 3 -1245 13 -1245 27 0 288 71 387 105 192 67 431
177 576 266 36 22 72 38 78 36 17 -7 119 -206 160 -313 l34 -89 616 -3 c490
-2 616 0 616 10 0 54 -98 383 -161 541 -81 202 -237 491 -345 638 l-36 49 75
113 c167 253 281 486 373 764 34 104 94 334 94 360 0 11 -242 13 -1240 13
l-1240 0 0 -1245z m2460 1218 c0 -32 -58 -245 -98 -363 -95 -278 -240 -568
-390 -779 l-45 -64 -21 29 c-103 142 -301 354 -454 487 -336 292 -733 512
-1152 640 -63 20 -131 39 -150 42 -19 4 -42 11 -50 16 -8 5 510 9 1173 9 1124
0 1187 -1 1187 -17z m-2305 -28 c585 -152 1116 -469 1526 -911 121 -130 232
-272 226 -288 -10 -26 -172 -221 -262 -315 -140 -146 -335 -311 -511 -430 -34
-22 -65 -41 -70 -41 -5 0 -37 39 -71 88 -207 292 -516 540 -842 676 -58 24
-114 46 -123 49 -17 6 -18 44 -18 607 l0 600 28 -6 c15 -3 67 -17 117 -29z
m80 -1281 c302 -147 570 -376 754 -643 41 -60 49 -77 39 -87 -48 -47 -403
-220 -590 -288 -124 -45 -376 -116 -410 -116 -17 0 -18 36 -18 615 l0 615 58
-21 c31 -12 107 -45 167 -75z m1774 -44 c190 -291 332 -608 417 -938 19 -73
34 -137 34 -142 0 -6 -225 -10 -600 -10 -563 0 -601 1 -607 18 -24 71 -101
241 -138 307 -25 43 -42 82 -38 85 5 4 49 34 98 68 229 155 477 384 655 605
52 64 97 117 100 117 4 0 39 -49 79 -110z"/>
</g>
</svg>
