<?xml version="1.0" standalone="no"?>
<!DOCTYPE svg PUBLIC "-//W3C//DTD SVG 20010904//EN"
 "http://www.w3.org/TR/2001/REC-SVG-20010904/DTD/svg10.dtd">
<svg version="1.0" xmlns="http://www.w3.org/2000/svg"
 width="150.000000pt" height="150.000000pt" viewBox="0 0 150.000000 150.000000"
 preserveAspectRatio="xMidYMid meet">

<g transform="translate(0.000000,150.000000) scale(0.100000,-0.100000)"
fill="#000000" stroke="none">
<path d="M787 1283 c-14 -13 -6 -69 13 -100 26 -44 64 -66 113 -67 36 -1 42 2
45 21 3 18 -4 24 -36 32 -47 13 -70 36 -83 85 -9 34 -34 48 -52 29z"/>
<path d="M934 1246 c-10 -26 3 -46 30 -46 35 0 76 -39 85 -80 6 -29 11 -35 31
-35 54 0 28 109 -34 150 -38 25 -104 32 -112 11z"/>
<path d="M997 1003 c-3 -5 -11 -77 -17 -160 l-13 -153 -86 79 c-47 43 -95 88
-105 100 -43 48 -66 15 -66 -96 l0 -78 -99 99 c-127 126 -134 126 -141 -7 l-5
-98 -100 101 c-98 98 -127 116 -139 84 -8 -20 -8 -618 0 -638 5 -14 61 -16
519 -16 283 0 516 4 519 8 5 8 -51 717 -60 760 -4 21 -9 22 -104 22 -54 0
-101 -3 -103 -7z m148 -55 c5 -14 55 -596 55 -640 l0 -28 -460 0 -460 0 0 250
c0 138 3 250 8 250 4 0 50 -43 102 -95 124 -124 133 -124 140 3 l5 93 95 -96
c94 -95 130 -115 144 -79 3 9 6 52 6 97 l0 82 98 -98 c90 -90 122 -111 136
-88 5 7 35 312 36 354 0 13 90 8 95 -5z"/>
<path d="M351 501 c-14 -25 -14 -116 -1 -142 9 -16 22 -19 90 -19 93 0 93 1
88 110 l-3 65 -82 3 c-73 2 -83 1 -92 -17z m119 -71 c0 -27 -3 -30 -30 -30
-27 0 -30 3 -30 30 0 27 3 30 30 30 27 0 30 -3 30 -30z"/>
<path d="M594 507 c-3 -8 -4 -47 -2 -88 l3 -74 78 -3 c50 -2 84 1 93 9 14 12
20 121 8 153 -8 21 -172 24 -180 3z m116 -77 c0 -27 -3 -30 -30 -30 -27 0 -30
3 -30 30 0 27 3 30 30 30 27 0 30 -3 30 -30z"/>
<path d="M844 507 c-3 -8 -4 -47 -2 -88 l3 -74 85 0 85 0 0 85 0 85 -83 3
c-63 2 -84 0 -88 -11z m116 -77 c0 -27 -3 -30 -30 -30 -27 0 -30 3 -30 30 0
27 3 30 30 30 27 0 30 -3 30 -30z"/>
</g>
</svg>
