<?xml version="1.0" standalone="no"?>
<!DOCTYPE svg PUBLIC "-//W3C//DTD SVG 20010904//EN"
 "http://www.w3.org/TR/2001/REC-SVG-20010904/DTD/svg10.dtd">
<svg version="1.0" xmlns="http://www.w3.org/2000/svg"
 width="150.000000pt" height="150.000000pt" viewBox="0 0 150.000000 150.000000"
 preserveAspectRatio="xMidYMid meet">

<g transform="translate(0.000000,150.000000) scale(0.100000,-0.100000)"
fill="#000000" stroke="none">
<path d="M557 1275 c-130 -36 -234 -156 -256 -296 -12 -69 -3 -92 33 -87 16 2
22 15 32 71 15 81 49 142 103 189 45 39 120 68 173 68 42 0 63 23 47 52 -12
22 -61 23 -132 3z"/>
<path d="M594 1146 c-93 -29 -169 -129 -162 -212 3 -34 6 -39 28 -39 25 0 31
11 45 78 10 50 64 97 125 111 48 11 55 16 58 38 2 19 -2 27 -20 32 -28 7 -24
7 -74 -8z"/>
<path d="M915 930 c-55 -55 -102 -100 -105 -100 -3 1 -16 10 -29 21 -20 17
-24 28 -22 65 2 38 -3 49 -28 74 -49 50 -125 39 -157 -22 -35 -68 12 -142 91
-143 32 0 50 -6 69 -24 l26 -25 -121 -122 c-136 -138 -136 -137 -58 -194 72
-52 177 -74 279 -60 l35 5 3 -57 3 -58 -38 0 c-49 0 -66 -11 -61 -41 l3 -24
185 -3 c163 -2 186 0 197 14 21 29 -1 54 -47 54 l-40 0 0 129 c0 119 2 133 28
187 23 51 27 71 27 154 0 81 -4 103 -26 150 -31 67 -75 120 -98 120 -9 0 -61
-45 -116 -100z m-230 -10 c0 -18 -6 -26 -23 -28 -24 -4 -38 18 -28 44 3 9 15
14 28 12 17 -2 23 -10 23 -28z m377 -23 c14 -28 23 -67 26 -118 4 -68 1 -84
-22 -135 -50 -109 -138 -172 -252 -182 -65 -5 -117 7 -172 40 l-32 20 207 213
c115 117 211 210 216 208 4 -2 17 -23 29 -46z m-32 -517 l0 -90 -35 0 -35 0 0
73 c0 68 2 73 28 89 15 9 30 17 35 17 4 1 7 -39 7 -89z"/>
</g>
</svg>
