<?xml version="1.0" standalone="no"?>
<!DOCTYPE svg PUBLIC "-//W3C//DTD SVG 20010904//EN"
 "http://www.w3.org/TR/2001/REC-SVG-20010904/DTD/svg10.dtd">
<svg version="1.0" xmlns="http://www.w3.org/2000/svg"
 width="151.000000pt" height="151.000000pt" viewBox="0 0 151.000000 151.000000"
 preserveAspectRatio="xMidYMid meet">

<g transform="translate(0.000000,151.000000) scale(0.100000,-0.100000)"
fill="#000000" stroke="none">
<path d="M855 1306 c-14 -14 -25 -32 -25 -41 0 -21 36 -55 60 -55 25 0 60 34
60 58 0 24 -20 49 -47 57 -17 4 -29 -1 -48 -19z m55 -21 c16 -19 6 -45 -19
-45 -23 0 -35 28 -20 46 15 18 24 18 39 -1z"/>
<path d="M532 1288 c-8 -8 -9 -15 -1 -25 8 -9 8 -17 0 -27 -16 -19 13 -44 32
-27 10 8 17 7 25 -1 18 -18 40 6 24 25 -9 10 -9 16 0 25 17 17 -10 46 -28 31
-10 -8 -18 -8 -27 0 -10 8 -17 7 -25 -1z"/>
<path d="M1126 1117 c-26 -19 -24 -67 4 -89 29 -23 45 -23 70 2 53 53 -14 131
-74 87z m62 -43 c4 -26 -26 -40 -45 -21 -8 7 -11 21 -7 31 9 24 48 17 52 -10z"/>
<path d="M654 1104 c-57 -20 -114 -72 -149 -135 -26 -47 -30 -64 -30 -134 0
-88 21 -140 87 -218 26 -31 33 -48 36 -97 2 -33 7 -60 11 -60 3 0 75 -11 159
-24 l152 -23 0 71 c0 76 9 100 68 177 34 45 62 122 62 174 0 17 -7 54 -15 82
-36 121 -148 204 -274 202 -36 0 -85 -7 -107 -15z m212 -52 c86 -44 134 -122
134 -217 0 -68 -16 -108 -69 -175 -39 -49 -54 -91 -55 -157 -1 -38 -11 -40
-112 -23 -32 6 -73 13 -90 15 -30 5 -32 9 -36 55 -4 38 -14 61 -45 102 -60 78
-75 114 -75 177 -1 113 68 205 182 242 38 13 123 3 166 -19z"/>
<path d="M272 1038 c-7 -7 -12 -26 -12 -43 0 -38 16 -55 51 -55 52 0 79 59 43
94 -18 19 -65 21 -82 4z m63 -43 c0 -23 -34 -33 -45 -14 -13 20 1 40 24 37 13
-2 21 -10 21 -23z"/>
<path d="M1182 828 c-8 -8 -9 -15 -1 -25 8 -9 8 -17 0 -26 -8 -10 -7 -17 1
-25 8 -8 15 -9 25 -1 9 9 17 8 28 -1 12 -10 19 -10 27 -2 8 8 8 15 -2 27 -9
11 -10 18 -1 29 15 18 -10 41 -27 24 -8 -8 -15 -8 -25 0 -10 9 -16 9 -25 0z"/>
<path d="M292 648 c-8 -8 -9 -15 -1 -25 8 -9 8 -17 0 -26 -15 -19 7 -41 26
-26 9 8 17 8 27 0 18 -15 45 14 28 31 -9 9 -9 15 0 25 16 20 -6 41 -26 24 -10
-8 -16 -9 -21 -1 -8 13 -18 13 -33 -2z"/>
<path d="M1066 538 c-9 -12 -16 -28 -16 -35 0 -22 38 -53 64 -53 26 0 56 33
56 62 0 47 -76 66 -104 26z m64 -13 c17 -20 5 -45 -20 -45 -11 0 -23 7 -26 15
-6 15 11 45 26 45 4 0 13 -7 20 -15z"/>
<path d="M608 403 c-7 -8 -7 -17 -2 -22 5 -5 72 -20 149 -34 101 -18 144 -22
153 -15 24 21 -7 33 -149 59 -117 21 -141 23 -151 12z"/>
<path d="M604 319 c-12 -21 15 -31 143 -55 156 -29 163 -29 163 -5 0 21 -2 22
-189 56 -99 18 -108 18 -117 4z"/>
<path d="M667 214 c-4 -4 -7 -13 -7 -21 0 -10 23 -13 101 -13 90 0 100 2 97
18 -3 14 -17 17 -94 20 -49 1 -93 0 -97 -4z"/>
</g>
</svg>
