<?xml version="1.0" standalone="no"?>
<!DOCTYPE svg PUBLIC "-//W3C//DTD SVG 20010904//EN"
 "http://www.w3.org/TR/2001/REC-SVG-20010904/DTD/svg10.dtd">
<svg version="1.0" xmlns="http://www.w3.org/2000/svg"
 width="150.000000pt" height="150.000000pt" viewBox="0 0 150.000000 150.000000"
 preserveAspectRatio="xMidYMid meet">

<g transform="translate(0.000000,150.000000) scale(0.100000,-0.100000)"
fill="#000000" stroke="none">
<path d="M680 1120 c-39 -9 -90 -60 -90 -90 0 -19 -7 -20 -108 -20 -150 0
-178 -15 -244 -130 l-48 -85 0 -147 0 -148 49 0 c43 0 51 -3 56 -22 11 -36 56
-77 94 -88 66 -18 132 14 166 80 l16 30 168 0 169 0 19 -37 c24 -50 92 -87
143 -78 47 9 89 41 107 82 l14 34 54 -6 55 -7 0 321 0 321 -292 -1 c-161 -1
-309 -5 -328 -9z m560 -310 l0 -260 -22 0 c-16 0 -29 11 -43 38 -26 49 -100
87 -150 78 -42 -8 -88 -46 -105 -86 l-12 -30 -134 0 -134 0 0 235 0 236 25 24
24 25 276 0 275 0 0 -260z m-660 75 l0 -65 -154 0 -155 0 31 54 c17 30 41 59
52 65 12 5 67 10 124 10 l102 1 0 -65z m0 -232 c0 -58 -3 -104 -6 -100 -3 3
-13 20 -22 39 -23 45 -98 83 -147 74 -40 -8 -90 -46 -111 -87 -8 -16 -21 -29
-29 -29 -12 0 -15 19 -15 105 l0 105 165 0 165 0 0 -107z m-99 -72 c45 -45 37
-100 -18 -129 -32 -17 -57 -15 -87 9 -21 16 -26 29 -26 63 0 28 6 48 18 58 41
36 76 35 113 -1z m632 -2 c9 -12 17 -37 17 -56 0 -41 -40 -83 -80 -83 -40 0
-80 42 -80 83 0 77 94 114 143 56z"/>
<path d="M723 970 c-25 -10 -26 -11 -17 -34 5 -14 29 -16 160 -16 146 0 154 1
154 20 0 10 -9 24 -19 30 -24 12 -247 12 -278 0z"/>
<path d="M706 834 c-3 -9 -4 -20 0 -25 3 -5 102 -9 220 -9 l215 0 -3 23 c-3
22 -4 22 -214 25 -187 2 -212 1 -218 -14z"/>
<path d="M710 715 c-10 -12 -10 -18 0 -30 19 -22 165 -21 174 1 12 32 -13 44
-89 44 -52 0 -76 -4 -85 -15z"/>
</g>
</svg>
