<?xml version="1.0" standalone="no"?>
<!DOCTYPE svg PUBLIC "-//W3C//DTD SVG 20010904//EN"
 "http://www.w3.org/TR/2001/REC-SVG-20010904/DTD/svg10.dtd">
<svg version="1.0" xmlns="http://www.w3.org/2000/svg"
 width="150.000000pt" height="150.000000pt" viewBox="0 0 150.000000 150.000000"
 preserveAspectRatio="xMidYMid meet">

<g transform="translate(0.000000,150.000000) scale(0.100000,-0.100000)"
fill="#000000" stroke="none">
<path d="M1059 1231 c-124 -19 -144 -28 -209 -96 l-35 -36 -90 6 c-82 6 -94 5
-132 -17 -66 -36 -233 -178 -233 -198 0 -13 21 -24 86 -45 l86 -26 -26 -28
c-14 -15 -26 -36 -27 -47 0 -11 -18 -31 -47 -49 -37 -23 -48 -37 -50 -60 -2
-26 11 -43 110 -142 62 -61 120 -112 128 -113 38 -5 52 3 81 50 22 36 37 50
53 50 12 0 33 12 47 26 l24 26 25 -84 c22 -69 29 -83 47 -83 28 0 198 202 212
251 6 20 7 72 4 116 l-6 79 50 52 c28 29 55 61 61 72 13 26 45 282 38 301 -7
18 -49 17 -197 -5z m131 -148 c-7 -60 -18 -119 -26 -133 -7 -14 -101 -113
-208 -220 l-196 -195 -110 110 -110 110 152 153 c84 84 179 176 211 204 l58
51 117 17 c64 9 119 16 121 14 2 -2 -2 -52 -9 -111z m-433 -37 c1 -1 -39 -43
-90 -93 l-92 -91 -68 22 -68 21 77 64 c90 75 131 93 194 84 25 -3 46 -6 47 -7z
m303 -359 c0 -42 -5 -71 -17 -87 -28 -42 -126 -155 -131 -153 -3 1 -14 30 -25
64 l-19 62 88 88 c49 49 92 89 96 89 5 0 8 -28 8 -63z m-389 -205 c-11 -22
-26 -44 -32 -48 -10 -6 -209 181 -209 197 0 3 21 17 48 32 l47 26 83 -83 84
-83 -21 -41z"/>
<path d="M811 941 c-83 -78 7 -209 109 -158 37 18 60 71 49 110 -21 76 -102
101 -158 48z m99 -46 c7 -8 10 -25 6 -39 -13 -52 -86 -40 -86 14 0 15 6 31 13
33 24 10 55 7 67 -8z"/>
<path d="M281 476 c-33 -34 -37 -66 -8 -66 22 0 80 67 74 84 -10 25 -30 19
-66 -18z"/>
<path d="M342 377 c-53 -54 -66 -87 -34 -87 23 0 137 115 128 129 -14 22 -43
10 -94 -42z"/>
<path d="M441 315 c-35 -40 -36 -58 -4 -63 22 -3 87 62 80 81 -8 26 -45 17
-76 -18z"/>
</g>
</svg>
