<?xml version="1.0" standalone="no"?>
<!DOCTYPE svg PUBLIC "-//W3C//DTD SVG 20010904//EN"
 "http://www.w3.org/TR/2001/REC-SVG-20010904/DTD/svg10.dtd">
<svg version="1.0" xmlns="http://www.w3.org/2000/svg"
 width="150.000000pt" height="150.000000pt" viewBox="0 0 150.000000 150.000000"
 preserveAspectRatio="xMidYMid meet">

<g transform="translate(0.000000,150.000000) scale(0.100000,-0.100000)"
fill="#000000" stroke="none">
<path d="M692 1270 c-58 -38 -168 -64 -277 -64 -49 -1 -96 -5 -103 -9 -19 -13
-17 -576 3 -643 21 -70 69 -139 134 -191 59 -47 261 -153 290 -153 23 0 110
36 186 78 136 73 219 162 250 266 20 65 22 625 3 644 -8 8 -49 12 -119 12
-119 0 -207 21 -271 65 -20 14 -41 25 -45 24 -4 0 -27 -13 -51 -29z m215 -116
c37 -8 100 -16 140 -17 l73 -1 0 -266 c-1 -286 -4 -306 -56 -382 -35 -51 -145
-129 -243 -175 l-75 -34 -62 26 c-88 38 -207 118 -248 169 -62 75 -66 98 -66
395 l0 266 82 2 c103 3 173 18 240 53 l53 27 47 -24 c26 -13 78 -30 115 -39z"/>
<path d="M723 1020 c-3 -11 -14 -20 -24 -20 -31 0 -92 -29 -123 -58 -30 -28
-65 -95 -66 -124 0 -14 4 -14 38 4 40 22 78 20 104 -6 12 -11 18 -10 38 6 l25
20 3 -123 c1 -67 0 -129 -2 -136 -9 -22 -35 -14 -42 12 -9 35 -34 32 -34 -3 0
-55 68 -83 103 -44 14 15 17 42 17 150 0 108 3 132 14 132 8 0 21 -6 28 -14
12 -11 18 -11 37 5 35 28 100 21 123 -15 4 -6 9 -8 12 -5 9 9 -15 82 -36 112
-24 33 -114 87 -146 87 -15 0 -26 7 -29 20 -3 11 -12 20 -20 20 -8 0 -17 -9
-20 -20z"/>
</g>
</svg>
