<?xml version="1.0" standalone="no"?>
<!DOCTYPE svg PUBLIC "-//W3C//DTD SVG 20010904//EN"
 "http://www.w3.org/TR/2001/REC-SVG-20010904/DTD/svg10.dtd">
<svg version="1.0" xmlns="http://www.w3.org/2000/svg"
 width="1195.000000pt" height="1614.000000pt" viewBox="0 0 1195.000000 1614.000000"
 preserveAspectRatio="xMidYMid meet">

<g transform="translate(0.000000,1614.000000) scale(0.100000,-0.100000)"
fill="#000000" stroke="none">
<path d="M11111 10235 c-130 -29 -290 -124 -487 -287 -110 -92 -395 -374 -915
-908 -190 -196 -404 -408 -475 -471 -428 -385 -780 -597 -1101 -664 -48 -10
-167 -20 -308 -25 -257 -10 -365 -20 -572 -55 -1241 -209 -2326 -1030 -2878
-2177 -353 -734 -468 -1584 -325 -2398 83 -469 264 -946 513 -1353 168 -275
340 -491 581 -733 332 -331 678 -578 1088 -773 859 -411 1870 -495 2775 -230
412 120 851 338 1188 587 293 218 590 512 808 799 471 622 761 1366 842 2160
14 142 33 503 55 1058 73 1858 60 3215 -41 4095 -26 229 -72 504 -110 660
-137 557 -339 783 -638 715z m-2982 -4550 c123 -7 312 -46 442 -91 281 -97
523 -254 735 -477 255 -268 418 -595 486 -977 18 -101 18 -479 0 -580 -89
-498 -354 -926 -753 -1213 -194 -139 -475 -259 -721 -309 -99 -20 -142 -23
-353 -23 -222 1 -249 3 -366 27 -360 78 -670 243 -925 496 -727 719 -734 1887
-15 2611 260 262 585 436 951 511 104 21 309 39 385 34 22 -2 82 -6 134 -9z"/>
</g>
</svg>
