<?xml version="1.0" standalone="no"?>
<!DOCTYPE svg PUBLIC "-//W3C//DTD SVG 20010904//EN"
 "http://www.w3.org/TR/2001/REC-SVG-20010904/DTD/svg10.dtd">
<svg version="1.0" xmlns="http://www.w3.org/2000/svg"
 width="162.000000pt" height="363.000000pt" viewBox="0 0 162.000000 363.000000"
 preserveAspectRatio="xMidYMid meet">

<g transform="translate(0.000000,363.000000) scale(0.100000,-0.100000)"
fill="#000000" stroke="none">
<path d="M93 3598 c-60 -67 -73 -150 -80 -513 -6 -329 8 -637 32 -730 8 -33
36 -102 61 -154 83 -168 233 -296 414 -353 96 -30 283 -33 371 -6 l56 18 127
297 c115 270 127 304 127 358 0 126 36 208 109 247 41 22 41 32 -2 103 -70
114 -166 203 -283 262 -86 44 -156 63 -268 73 -145 13 -178 32 -377 226 -204
198 -242 221 -287 172z m769 -810 c72 -33 142 -103 176 -176 23 -49 27 -70 27
-152 0 -83 -3 -102 -28 -151 -30 -62 -103 -136 -164 -167 -169 -87 -391 -14
-477 157 -102 200 -1 436 217 507 65 22 181 13 249 -18z"/>
<path d="M1335 2752 c-82 -38 -115 -104 -115 -227 0 -89 14 -137 51 -180 82
-93 228 -82 300 23 22 33 24 45 24 157 0 112 -2 124 -24 157 -55 79 -153 109
-236 70z"/>
<path d="M1018 1981 c-112 -262 -188 -452 -188 -471 0 -92 84 -161 175 -144
73 13 83 31 275 477 99 229 180 419 180 420 0 1 -24 3 -53 3 -80 2 -153 49
-184 122 -7 17 -14 32 -16 32 -1 0 -86 -198 -189 -439z"/>
<path d="M571 1694 c-193 -52 -353 -206 -414 -399 -21 -67 -22 -86 -22 -430
l0 -360 28 -80 c82 -230 271 -380 507 -400 270 -24 536 169 605 440 22 85 22
710 0 803 -16 66 -58 156 -98 210 l-24 32 -17 -43 c-57 -150 -251 -162 -312
-20 -21 49 -17 87 16 165 17 39 28 73 26 75 -24 25 -214 29 -295 7z"/>
</g>
</svg>
