<?xml version="1.0" standalone="no"?>
<!DOCTYPE svg PUBLIC "-//W3C//DTD SVG 20010904//EN"
 "http://www.w3.org/TR/2001/REC-SVG-20010904/DTD/svg10.dtd">
<svg version="1.0" xmlns="http://www.w3.org/2000/svg"
 width="151.000000pt" height="151.000000pt" viewBox="0 0 151.000000 151.000000"
 preserveAspectRatio="xMidYMid meet">

<g transform="translate(0.000000,151.000000) scale(0.100000,-0.100000)"
fill="#000000" stroke="none">
<path d="M395 1263 c-213 -77 -313 -314 -218 -515 17 -34 41 -73 54 -85 57
-53 65 -61 74 -77 6 -9 27 -23 49 -30 31 -11 41 -21 52 -52 14 -42 44 -70 85
-78 19 -4 28 -13 32 -33 7 -37 50 -80 88 -88 16 -4 29 -13 29 -21 0 -28 31
-74 60 -89 16 -8 46 -15 67 -15 35 0 49 12 291 252 208 208 258 264 283 314
101 203 -11 457 -229 520 -38 11 -80 15 -137 12 -70 -4 -90 -9 -148 -41 l-66
-36 -71 36 c-62 33 -80 37 -158 40 -65 3 -100 -1 -137 -14z m232 -64 c45 -18
77 -42 155 -117 54 -52 100 -103 104 -114 16 -52 -32 -106 -83 -93 -16 4 -78
56 -148 126 -67 65 -129 119 -138 119 -35 0 -31 -31 11 -73 l41 -42 -148 -150
-149 -150 -20 32 c-37 55 -55 128 -49 194 19 209 228 341 424 268z m511 -8
c65 -33 118 -87 149 -149 22 -46 28 -70 28 -132 0 -129 -18 -156 -288 -427
-127 -129 -242 -236 -254 -239 -30 -8 -62 12 -69 42 -6 23 10 43 152 185 133
133 157 162 148 176 -6 9 -16 19 -23 21 -6 2 -83 -66 -170 -152 -87 -86 -164
-156 -172 -156 -28 0 -59 31 -59 57 0 21 34 61 154 182 129 130 153 159 145
174 -6 9 -15 17 -22 17 -7 0 -80 -67 -162 -150 -131 -131 -154 -150 -182 -150
-33 0 -53 21 -53 56 0 10 61 79 136 154 l135 137 44 -16 c40 -14 49 -14 87 -1
57 20 88 66 88 133 0 47 -2 52 -70 121 -38 40 -70 75 -70 79 0 8 73 46 110 58
47 16 172 4 218 -20z m-585 -443 c-110 -110 -143 -138 -165 -138 -28 0 -48 23
-48 57 0 10 62 80 137 155 l137 138 38 -37 38 -37 -137 -138z"/>
</g>
</svg>
