<?xml version="1.0" standalone="no"?>
<!DOCTYPE svg PUBLIC "-//W3C//DTD SVG 20010904//EN"
 "http://www.w3.org/TR/2001/REC-SVG-20010904/DTD/svg10.dtd">
<svg version="1.0" xmlns="http://www.w3.org/2000/svg"
 width="151.000000pt" height="151.000000pt" viewBox="0 0 151.000000 151.000000"
 preserveAspectRatio="xMidYMid meet">

<g transform="translate(0.000000,151.000000) scale(0.100000,-0.100000)"
fill="#000000" stroke="none">
<path d="M655 1178 c-98 -19 -245 -107 -245 -148 0 -9 7 -23 15 -30 13 -11 23
-8 58 19 140 105 287 126 425 61 32 -15 75 -42 96 -61 30 -26 41 -31 54 -22
35 21 26 50 -30 92 -113 85 -238 115 -373 89z"/>
<path d="M726 1057 c-15 -11 -16 -35 -14 -211 3 -173 5 -200 20 -209 12 -8 21
-7 32 2 14 11 16 43 16 212 0 183 -1 199 -19 208 -13 7 -23 7 -35 -2z"/>
<path d="M403 861 c-39 -25 -53 -49 -53 -94 0 -56 53 -62 65 -7 8 37 27 52 62
48 21 -2 33 -13 49 -43 23 -46 48 -55 64 -25 15 27 -2 79 -35 110 -35 32 -109
38 -152 11z"/>
<path d="M964 870 c-48 -19 -88 -106 -63 -136 19 -23 41 -13 63 31 33 63 97
61 111 -5 7 -30 26 -43 50 -34 20 8 20 73 -1 102 -31 45 -105 64 -160 42z"/>
<path d="M422 448 c-7 -7 -12 -17 -12 -24 0 -21 81 -86 149 -118 63 -29 72
-31 186 -31 110 0 125 2 179 27 88 42 158 96 154 121 -7 44 -31 42 -97 -7 -75
-54 -151 -80 -242 -79 -85 0 -155 24 -229 79 -65 48 -70 50 -88 32z"/>
</g>
</svg>
