<?xml version="1.0" standalone="no"?>
<!DOCTYPE svg PUBLIC "-//W3C//DTD SVG 20010904//EN"
 "http://www.w3.org/TR/2001/REC-SVG-20010904/DTD/svg10.dtd">
<svg version="1.0" xmlns="http://www.w3.org/2000/svg"
 width="151.000000pt" height="151.000000pt" viewBox="0 0 151.000000 151.000000"
 preserveAspectRatio="xMidYMid meet">

<g transform="translate(0.000000,151.000000) scale(0.100000,-0.100000)"
fill="#000000" stroke="none">
<path d="M695 1331 c-48 -22 -69 -44 -90 -94 -28 -69 -13 -137 46 -204 18 -21
29 -44 27 -56 -3 -19 -11 -23 -63 -27 -93 -8 -126 -36 -139 -117 -7 -36 -11
-42 -39 -47 -52 -10 -104 -54 -132 -109 -14 -28 -25 -58 -25 -68 0 -9 -14 -49
-30 -90 -17 -40 -28 -79 -26 -86 3 -7 19 -13 36 -13 25 0 30 -4 30 -25 0 -33
42 -75 73 -75 22 0 26 -6 32 -45 l6 -46 137 3 137 3 2 85 c2 47 7 129 13 182
13 118 4 163 -46 218 -19 21 -55 46 -80 56 -39 15 -44 20 -44 48 1 56 41 86
114 86 36 0 48 -4 56 -21 7 -11 27 -27 46 -35 29 -12 39 -12 68 0 19 8 39 24
46 35 8 17 20 21 56 21 74 0 113 -30 114 -87 0 -27 -5 -33 -36 -43 -50 -17
-104 -67 -127 -119 -17 -40 -18 -52 -8 -160 7 -64 13 -150 14 -191 l2 -75 137
-3 137 -3 6 46 c6 39 10 45 32 45 31 0 73 42 73 75 0 21 5 25 29 25 17 0 33 5
36 11 4 5 -7 45 -23 87 -16 42 -35 96 -41 120 -16 59 -72 118 -131 139 -43 15
-49 21 -55 52 -16 86 -47 113 -140 121 -52 4 -60 8 -63 27 -2 12 9 35 27 56
61 69 75 140 42 212 -22 48 -44 69 -94 90 -48 20 -93 19 -142 -4z m151 -47
c65 -43 78 -136 28 -199 -16 -20 -33 -45 -39 -56 -5 -10 -18 -19 -27 -19 -25
0 -26 87 -1 105 24 18 7 35 -37 35 -44 0 -61 -17 -37 -35 12 -8 17 -27 17 -59
0 -39 -3 -46 -20 -46 -11 0 -20 6 -20 13 0 7 -13 26 -30 42 -75 72 -58 184 35
227 44 20 92 17 131 -8z m-26 -340 c0 -32 -20 -54 -50 -54 -30 0 -50 22 -50
54 0 12 11 16 50 16 39 0 50 -4 50 -16z m-267 -208 c18 -7 47 -30 65 -51 l34
-37 -7 -182 c-4 -99 -9 -182 -10 -184 -2 -2 -46 -6 -99 -9 l-96 -6 0 40 c0 49
-14 63 -62 63 -33 0 -38 3 -44 28 -12 56 -16 62 -35 62 -24 0 -24 4 6 84 14
37 25 75 25 86 0 26 57 90 95 106 39 17 88 17 128 0z m560 0 c38 -15 97 -79
97 -104 0 -9 12 -48 25 -87 30 -84 30 -85 6 -85 -19 0 -23 -6 -35 -62 -6 -25
-11 -28 -46 -28 -45 0 -60 -18 -60 -71 l0 -32 -96 6 c-54 4 -98 8 -99 9 -1 2
-6 85 -10 184 l-7 182 34 37 c54 62 122 80 191 51z"/>
</g>
</svg>
