<?xml version="1.0" standalone="no"?>
<!DOCTYPE svg PUBLIC "-//W3C//DTD SVG 20010904//EN"
 "http://www.w3.org/TR/2001/REC-SVG-20010904/DTD/svg10.dtd">
<svg version="1.0" xmlns="http://www.w3.org/2000/svg"
 width="1195.000000pt" height="1614.000000pt" viewBox="0 0 1195.000000 1614.000000"
 preserveAspectRatio="xMidYMid meet">

<g transform="translate(0.000000,1614.000000) scale(0.100000,-0.100000)"
fill="#000000" stroke="none">
<path d="M11111 10235 c-84 -19 -175 -62 -291 -140 -203 -136 -364 -289 -1111
-1055 -190 -196 -404 -408 -475 -471 -430 -387 -778 -597 -1101 -664 -48 -10
-167 -20 -313 -25 -636 -24 -1172 -162 -1707 -440 -668 -346 -1230 -886 -1607
-1544 -426 -741 -598 -1634 -480 -2491 97 -705 380 -1359 833 -1928 122 -154
411 -446 561 -569 600 -489 1281 -779 2050 -874 172 -21 571 -29 745 -15 393
33 774 118 1105 248 156 61 451 206 585 288 413 252 807 608 1096 990 473 627
763 1370 844 2165 14 138 32 492 55 1050 89 2238 51 3756 -116 4590 -80 404
-177 644 -314 781 -63 64 -112 92 -188 108 -66 14 -90 13 -171 -4z m-2982
-4550 c267 -15 591 -124 833 -281 331 -213 598 -542 731 -899 88 -236 112
-375 111 -660 0 -211 -2 -240 -27 -356 -36 -169 -77 -289 -152 -444 -240 -494
-668 -844 -1200 -980 -182 -47 -303 -59 -524 -52 -269 8 -473 55 -711 165
-491 227 -874 684 -1005 1202 -44 173 -58 284 -58 465 0 194 11 285 57 470
142 561 568 1043 1107 1251 116 45 240 80 352 100 98 18 286 32 352 28 22 -2
82 -6 134 -9z"/>
</g>
</svg>
