<?xml version="1.0" standalone="no"?>
<!DOCTYPE svg PUBLIC "-//W3C//DTD SVG 20010904//EN"
 "http://www.w3.org/TR/2001/REC-SVG-20010904/DTD/svg10.dtd">
<svg version="1.0" xmlns="http://www.w3.org/2000/svg"
 width="162.000000pt" height="363.000000pt" viewBox="0 0 162.000000 363.000000"
 preserveAspectRatio="xMidYMid meet">

<g transform="translate(0.000000,363.000000) scale(0.100000,-0.100000)"
fill="#000000" stroke="none">
<path d="M93 3598 c-60 -67 -73 -150 -80 -513 -6 -365 7 -638 37 -745 65 -231
237 -414 456 -486 79 -26 103 -29 209 -29 83 1 137 6 176 18 l57 17 124 292
125 293 6 99 c5 85 9 104 34 145 17 28 45 55 71 69 l42 23 -30 59 c-76 151
-237 282 -410 334 -30 10 -98 21 -151 25 -146 12 -178 31 -378 226 -204 199
-243 222 -288 173z m773 -813 c74 -36 138 -101 172 -173 23 -49 27 -70 27
-152 0 -87 -3 -100 -32 -155 -75 -144 -226 -222 -377 -194 -157 28 -270 142
-295 295 -28 179 75 342 252 400 69 23 183 13 253 -21z"/>
<path d="M1335 2752 c-87 -41 -120 -113 -113 -253 5 -98 21 -134 81 -183 35
-28 46 -31 106 -31 77 0 120 22 162 83 22 33 24 45 24 157 0 112 -2 124 -24
157 -55 79 -153 109 -236 70z"/>
<path d="M1018 1981 c-109 -255 -188 -453 -188 -471 0 -93 83 -162 175 -144
73 13 83 31 275 477 99 229 180 419 180 420 0 1 -24 3 -53 3 -80 2 -153 49
-184 122 -7 17 -14 32 -16 32 -1 0 -86 -198 -189 -439z"/>
<path d="M571 1695 c-196 -55 -352 -206 -414 -400 -21 -67 -22 -86 -22 -425 0
-344 1 -357 23 -430 74 -234 271 -394 512 -415 270 -24 536 169 605 440 22 88
22 720 -1 808 -17 66 -58 153 -97 205 l-24 32 -17 -43 c-57 -150 -251 -162
-312 -20 -21 48 -17 83 17 163 21 51 27 76 20 83 -18 18 -228 19 -290 2z"/>
</g>
</svg>
